<svg xmlns="http://www.w3.org/2000/svg" viewBox="0 0 280 64" fill="none">
  <!-- Shield icon (dark variant) -->
  <path d="M32 4L8 16v16c0 14.4 10.24 27.84 24 32 13.76-4.16 24-17.6 24-32V16L32 4z" fill="#111827"/>
  <path d="M32 8L12 18v14c0 12.6 8.96 24.36 20 28 11.04-3.64 20-15.4 20-28V18L32 8z" fill="#1f2937"/>
  <rect x="22" y="18" width="20" height="10" rx="5" stroke="white" stroke-width="2.5" fill="none"/>
  <rect x="22" y="28" width="20" height="10" rx="5" stroke="white" stroke-width="2.5" fill="none"/>
  <line x1="27" y1="28" x2="37" y2="28" stroke="white" stroke-width="2.5" stroke-linecap="round"/>
  <path d="M29 40l3-8 3 8M30 38h4" stroke="white" stroke-width="1.8" stroke-linecap="round" stroke-linejoin="round" fill="none"/>
  <!-- Wordmark (dark) -->
  <text x="72" y="42" font-family="Inter, system-ui, sans-serif" font-weight="700" font-size="28" fill="#111827">Audit<tspan fill="#3366FF">Rails</tspan></text>
</svg>
